<svg version="1.1" fill="#4a5568" id="Capa_1" xmlns="http://www.w3.org/2000/svg" xmlns:xlink="http://www.w3.org/1999/xlink" x="0px" y="0px" viewBox="0 0 512 512" style="enable-background:new 0 0 512 512;" xml:space="preserve"><g><g><path d="M496.375,139.958L372.042,15.625C361.969,5.552,348.573,0,334.323,0H177.677c-14.25,0-27.646,5.552-37.719,15.625L15.625,139.958C5.552,150.031,0,163.427,0,177.677v156.646c0,14.25,5.552,27.646,15.625,37.719l124.333,124.333C150.031,506.448,163.427,512,177.677,512h156.646c14.25,0,27.646-5.552,37.719-15.625l124.333-124.333C506.448,361.969,512,348.573,512,334.323V177.677C512,163.427,506.448,150.031,496.375,139.958z M256,426.667c-11.76,0-21.333-9.573-21.333-21.333c0-11.76,9.573-21.333,21.333-21.333s21.333,9.573,21.333,21.333C277.333,417.094,267.76,426.667,256,426.667z M277.333,352c0,5.896-4.771,10.667-10.667,10.667h-21.333c-5.896,0-10.667-4.771-10.667-10.667V117.333c0-5.896,4.771-10.667,10.667-10.667h21.333c5.896,0,10.667,4.771,10.667,10.667V352z"/></g></g><g></g><g></g><g></g><g></g><g></g><g></g><g></g><g></g><g></g><g></g><g></g><g></g><g></g><g></g><g></g></svg>
